<mxfile host="Electron" modified="2023-04-27T22:33:53.096Z" agent="Mozilla/5.0 (Windows NT 10.0; Win64; x64) AppleWebKit/537.36 (KHTML, like Gecko) draw.io/21.2.1 Chrome/112.0.5615.87 Electron/24.1.2 Safari/537.36" etag="-QkLClIQSLF8-ebLzT5W" version="21.2.1" type="device">
  <diagram id="SSazmtFKOzigNYbbt5q3" name="Page-1">
    <mxGraphModel dx="2578" dy="1177" grid="1" gridSize="10" guides="1" tooltips="1" connect="1" arrows="1" fold="1" page="1" pageScale="1" pageWidth="850" pageHeight="1100" math="0" shadow="0">
      <root>
        <mxCell id="0" />
        <mxCell id="1" parent="0" />
        <mxCell id="51HZiMlxU9EM_0fWzo---1" value="Physicians" style="rounded=0;whiteSpace=wrap;html=1;" parent="1" vertex="1">
          <mxGeometry x="-690" y="542.17" width="120" height="60" as="geometry" />
        </mxCell>
        <mxCell id="51HZiMlxU9EM_0fWzo---2" value="Room" style="rounded=0;whiteSpace=wrap;html=1;" parent="1" vertex="1">
          <mxGeometry x="-25" y="140" width="120" height="60" as="geometry" />
        </mxCell>
        <mxCell id="51HZiMlxU9EM_0fWzo---3" value="Instruction" style="rounded=0;whiteSpace=wrap;html=1;" parent="1" vertex="1">
          <mxGeometry x="-490" y="940" width="120" height="60" as="geometry" />
        </mxCell>
        <mxCell id="51HZiMlxU9EM_0fWzo---5" value="Patient" style="rounded=0;whiteSpace=wrap;html=1;" parent="1" vertex="1">
          <mxGeometry x="-22.5" y="545" width="120" height="60" as="geometry" />
        </mxCell>
        <mxCell id="51HZiMlxU9EM_0fWzo---6" value="Nurse" style="rounded=0;whiteSpace=wrap;html=1;" parent="1" vertex="1">
          <mxGeometry x="-160" y="820" width="120" height="60" as="geometry" />
        </mxCell>
        <mxCell id="51HZiMlxU9EM_0fWzo---7" value="&lt;u&gt;physID&lt;/u&gt;" style="ellipse;whiteSpace=wrap;html=1;" parent="1" vertex="1">
          <mxGeometry x="-795" y="549.67" width="67.5" height="45" as="geometry" />
        </mxCell>
        <mxCell id="51HZiMlxU9EM_0fWzo---8" value="" style="endArrow=none;html=1;rounded=0;entryX=1;entryY=0.5;entryDx=0;entryDy=0;exitX=0;exitY=0.5;exitDx=0;exitDy=0;" parent="1" source="51HZiMlxU9EM_0fWzo---1" target="51HZiMlxU9EM_0fWzo---7" edge="1">
          <mxGeometry width="50" height="50" relative="1" as="geometry">
            <mxPoint x="-640" y="482.17" as="sourcePoint" />
            <mxPoint x="-420" y="642.17" as="targetPoint" />
          </mxGeometry>
        </mxCell>
        <mxCell id="51HZiMlxU9EM_0fWzo---88" value="" style="endArrow=none;html=1;rounded=0;entryX=0;entryY=0;entryDx=0;entryDy=0;exitX=0.75;exitY=1;exitDx=0;exitDy=0;" parent="1" source="51HZiMlxU9EM_0fWzo---3" target="51HZiMlxU9EM_0fWzo---93" edge="1">
          <mxGeometry width="50" height="50" relative="1" as="geometry">
            <mxPoint x="-378.75" y="1090" as="sourcePoint" />
            <mxPoint x="313.75" y="1220" as="targetPoint" />
          </mxGeometry>
        </mxCell>
        <mxCell id="51HZiMlxU9EM_0fWzo---93" value="&lt;u&gt;Code&lt;/u&gt;" style="ellipse;whiteSpace=wrap;html=1;" parent="1" vertex="1">
          <mxGeometry x="-388.75" y="1020" width="75" height="50" as="geometry" />
        </mxCell>
        <mxCell id="51HZiMlxU9EM_0fWzo---95" value="Phone #" style="ellipse;whiteSpace=wrap;html=1;" parent="1" vertex="1">
          <mxGeometry x="-710" y="642.17" width="60" height="40" as="geometry" />
        </mxCell>
        <mxCell id="51HZiMlxU9EM_0fWzo---96" value="" style="endArrow=none;html=1;rounded=0;exitX=0.25;exitY=1;exitDx=0;exitDy=0;entryX=0.5;entryY=0;entryDx=0;entryDy=0;" parent="1" source="51HZiMlxU9EM_0fWzo---1" target="51HZiMlxU9EM_0fWzo---95" edge="1">
          <mxGeometry width="50" height="50" relative="1" as="geometry">
            <mxPoint x="-390" y="532.17" as="sourcePoint" />
            <mxPoint x="-660" y="642.17" as="targetPoint" />
          </mxGeometry>
        </mxCell>
        <mxCell id="51HZiMlxU9EM_0fWzo---97" value="Fee" style="ellipse;whiteSpace=wrap;html=1;" parent="1" vertex="1">
          <mxGeometry x="-467.5" y="1020" width="75" height="50" as="geometry" />
        </mxCell>
        <mxCell id="51HZiMlxU9EM_0fWzo---98" value="" style="endArrow=none;html=1;rounded=0;entryX=0.5;entryY=0;entryDx=0;entryDy=0;exitX=0.5;exitY=1;exitDx=0;exitDy=0;" parent="1" source="51HZiMlxU9EM_0fWzo---3" target="51HZiMlxU9EM_0fWzo---97" edge="1">
          <mxGeometry width="50" height="50" relative="1" as="geometry">
            <mxPoint x="-438.75" y="1090" as="sourcePoint" />
            <mxPoint x="363.75" y="1270" as="targetPoint" />
          </mxGeometry>
        </mxCell>
        <mxCell id="51HZiMlxU9EM_0fWzo---99" value="Description" style="ellipse;whiteSpace=wrap;html=1;" parent="1" vertex="1">
          <mxGeometry x="-548.75" y="1020" width="75" height="50" as="geometry" />
        </mxCell>
        <mxCell id="51HZiMlxU9EM_0fWzo---100" value="" style="endArrow=none;html=1;rounded=0;entryX=1;entryY=0;entryDx=0;entryDy=0;exitX=0.25;exitY=1;exitDx=0;exitDy=0;" parent="1" source="51HZiMlxU9EM_0fWzo---3" target="51HZiMlxU9EM_0fWzo---99" edge="1">
          <mxGeometry width="50" height="50" relative="1" as="geometry">
            <mxPoint x="-468.75" y="1090" as="sourcePoint" />
            <mxPoint x="-158.75" y="1130" as="targetPoint" />
          </mxGeometry>
        </mxCell>
        <mxCell id="51HZiMlxU9EM_0fWzo---101" value="Capacity" style="ellipse;whiteSpace=wrap;html=1;" parent="1" vertex="1">
          <mxGeometry x="-2.5" y="65" width="75" height="50" as="geometry" />
        </mxCell>
        <mxCell id="51HZiMlxU9EM_0fWzo---102" value="" style="endArrow=none;html=1;rounded=0;entryX=0.5;entryY=1;entryDx=0;entryDy=0;exitX=0.5;exitY=0;exitDx=0;exitDy=0;" parent="1" source="51HZiMlxU9EM_0fWzo---2" target="51HZiMlxU9EM_0fWzo---101" edge="1">
          <mxGeometry width="50" height="50" relative="1" as="geometry">
            <mxPoint x="325" y="155" as="sourcePoint" />
            <mxPoint x="545" y="315" as="targetPoint" />
          </mxGeometry>
        </mxCell>
        <mxCell id="51HZiMlxU9EM_0fWzo---103" value="Address" style="ellipse;whiteSpace=wrap;html=1;" parent="1" vertex="1">
          <mxGeometry x="-635" y="477.17" width="60" height="40" as="geometry" />
        </mxCell>
        <mxCell id="51HZiMlxU9EM_0fWzo---104" value="" style="endArrow=none;html=1;rounded=0;entryX=0.5;entryY=1;entryDx=0;entryDy=0;exitX=0.75;exitY=0;exitDx=0;exitDy=0;" parent="1" source="51HZiMlxU9EM_0fWzo---1" target="51HZiMlxU9EM_0fWzo---103" edge="1">
          <mxGeometry width="50" height="50" relative="1" as="geometry">
            <mxPoint x="-350" y="572.17" as="sourcePoint" />
            <mxPoint x="-130" y="732.17" as="targetPoint" />
          </mxGeometry>
        </mxCell>
        <mxCell id="51HZiMlxU9EM_0fWzo---107" value="Cert. #" style="ellipse;whiteSpace=wrap;html=1;" parent="1" vertex="1">
          <mxGeometry x="-787.5" y="492.17" width="60" height="40" as="geometry" />
        </mxCell>
        <mxCell id="51HZiMlxU9EM_0fWzo---108" value="" style="endArrow=none;html=1;rounded=0;entryX=1;entryY=1;entryDx=0;entryDy=0;exitX=0;exitY=0;exitDx=0;exitDy=0;" parent="1" source="51HZiMlxU9EM_0fWzo---1" target="51HZiMlxU9EM_0fWzo---107" edge="1">
          <mxGeometry width="50" height="50" relative="1" as="geometry">
            <mxPoint x="-690" y="542.17" as="sourcePoint" />
            <mxPoint x="-310" y="752.17" as="targetPoint" />
          </mxGeometry>
        </mxCell>
        <mxCell id="51HZiMlxU9EM_0fWzo---109" value="Name" style="ellipse;whiteSpace=wrap;html=1;" parent="1" vertex="1">
          <mxGeometry x="-795" y="612.17" width="60" height="40" as="geometry" />
        </mxCell>
        <mxCell id="51HZiMlxU9EM_0fWzo---110" value="" style="endArrow=none;html=1;rounded=0;entryX=1;entryY=0;entryDx=0;entryDy=0;exitX=0;exitY=1;exitDx=0;exitDy=0;" parent="1" source="51HZiMlxU9EM_0fWzo---1" target="51HZiMlxU9EM_0fWzo---109" edge="1">
          <mxGeometry width="50" height="50" relative="1" as="geometry">
            <mxPoint x="-530" y="432.17" as="sourcePoint" />
            <mxPoint x="-300" y="762.17" as="targetPoint" />
          </mxGeometry>
        </mxCell>
        <mxCell id="51HZiMlxU9EM_0fWzo---111" value="Expertise" style="ellipse;whiteSpace=wrap;html=1;" parent="1" vertex="1">
          <mxGeometry x="-710" y="477.17" width="60" height="40" as="geometry" />
        </mxCell>
        <mxCell id="51HZiMlxU9EM_0fWzo---112" value="" style="endArrow=none;html=1;rounded=0;entryX=0.5;entryY=1;entryDx=0;entryDy=0;exitX=0.25;exitY=0;exitDx=0;exitDy=0;" parent="1" source="51HZiMlxU9EM_0fWzo---1" target="51HZiMlxU9EM_0fWzo---111" edge="1">
          <mxGeometry width="50" height="50" relative="1" as="geometry">
            <mxPoint x="-460" y="432.17" as="sourcePoint" />
            <mxPoint x="-290" y="772.17" as="targetPoint" />
          </mxGeometry>
        </mxCell>
        <mxCell id="51HZiMlxU9EM_0fWzo---113" value="Fee" style="ellipse;whiteSpace=wrap;html=1;" parent="1" vertex="1">
          <mxGeometry x="85" y="65" width="75" height="50" as="geometry" />
        </mxCell>
        <mxCell id="51HZiMlxU9EM_0fWzo---114" value="" style="endArrow=none;html=1;rounded=0;entryX=0.5;entryY=1;entryDx=0;entryDy=0;exitX=0.75;exitY=0;exitDx=0;exitDy=0;" parent="1" source="51HZiMlxU9EM_0fWzo---2" target="51HZiMlxU9EM_0fWzo---113" edge="1">
          <mxGeometry width="50" height="50" relative="1" as="geometry">
            <mxPoint x="485" y="25" as="sourcePoint" />
            <mxPoint x="605" y="375" as="targetPoint" />
          </mxGeometry>
        </mxCell>
        <mxCell id="51HZiMlxU9EM_0fWzo---115" value="&lt;u&gt;Number&lt;/u&gt;" style="ellipse;whiteSpace=wrap;html=1;" parent="1" vertex="1">
          <mxGeometry x="-100" y="65" width="75" height="50" as="geometry" />
        </mxCell>
        <mxCell id="51HZiMlxU9EM_0fWzo---116" value="" style="endArrow=none;html=1;rounded=0;entryX=0.5;entryY=1;entryDx=0;entryDy=0;exitX=0.25;exitY=0;exitDx=0;exitDy=0;" parent="1" source="51HZiMlxU9EM_0fWzo---2" target="51HZiMlxU9EM_0fWzo---115" edge="1">
          <mxGeometry width="50" height="50" relative="1" as="geometry">
            <mxPoint x="465" y="75" as="sourcePoint" />
            <mxPoint x="615" y="385" as="targetPoint" />
          </mxGeometry>
        </mxCell>
        <mxCell id="51HZiMlxU9EM_0fWzo---141" value="Desc." style="ellipse;whiteSpace=wrap;html=1;" parent="1" vertex="1">
          <mxGeometry x="412.5" y="413" width="75" height="50" as="geometry" />
        </mxCell>
        <mxCell id="51HZiMlxU9EM_0fWzo---142" value="" style="endArrow=none;html=1;rounded=0;entryX=0.5;entryY=1;entryDx=0;entryDy=0;exitX=0.5;exitY=0;exitDx=0;exitDy=0;" parent="1" source="-TbdaekWmT4Wg_c_PYvP-15" target="51HZiMlxU9EM_0fWzo---141" edge="1">
          <mxGeometry width="50" height="50" relative="1" as="geometry">
            <mxPoint x="600" y="333" as="sourcePoint" />
            <mxPoint x="820" y="493" as="targetPoint" />
          </mxGeometry>
        </mxCell>
        <mxCell id="51HZiMlxU9EM_0fWzo---143" value="Fee" style="ellipse;whiteSpace=wrap;html=1;" parent="1" vertex="1">
          <mxGeometry x="492.5" y="413" width="75" height="50" as="geometry" />
        </mxCell>
        <mxCell id="51HZiMlxU9EM_0fWzo---144" value="" style="endArrow=none;html=1;rounded=0;entryX=0.5;entryY=1;entryDx=0;entryDy=0;exitX=0.75;exitY=0;exitDx=0;exitDy=0;" parent="1" source="-TbdaekWmT4Wg_c_PYvP-15" target="51HZiMlxU9EM_0fWzo---143" edge="1">
          <mxGeometry width="50" height="50" relative="1" as="geometry">
            <mxPoint x="610" y="343" as="sourcePoint" />
            <mxPoint x="830" y="503" as="targetPoint" />
          </mxGeometry>
        </mxCell>
        <mxCell id="51HZiMlxU9EM_0fWzo---145" value="&lt;u&gt;invID&lt;/u&gt;" style="ellipse;whiteSpace=wrap;html=1;" parent="1" vertex="1">
          <mxGeometry x="545" y="483" width="75" height="50" as="geometry" />
        </mxCell>
        <mxCell id="51HZiMlxU9EM_0fWzo---146" value="" style="endArrow=none;html=1;rounded=0;entryX=0;entryY=0.5;entryDx=0;entryDy=0;exitX=1;exitY=0.5;exitDx=0;exitDy=0;" parent="1" source="-TbdaekWmT4Wg_c_PYvP-15" target="51HZiMlxU9EM_0fWzo---145" edge="1">
          <mxGeometry width="50" height="50" relative="1" as="geometry">
            <mxPoint x="620" y="353" as="sourcePoint" />
            <mxPoint x="840" y="513" as="targetPoint" />
          </mxGeometry>
        </mxCell>
        <mxCell id="51HZiMlxU9EM_0fWzo---147" value="Desc." style="ellipse;whiteSpace=wrap;html=1;" parent="1" vertex="1">
          <mxGeometry x="-171.25" y="253" width="45" height="30" as="geometry" />
        </mxCell>
        <mxCell id="51HZiMlxU9EM_0fWzo---148" value="" style="endArrow=none;html=1;rounded=0;entryX=0.5;entryY=1;entryDx=0;entryDy=0;exitX=0.5;exitY=0;exitDx=0;exitDy=0;" parent="1" source="-TbdaekWmT4Wg_c_PYvP-22" target="51HZiMlxU9EM_0fWzo---147" edge="1">
          <mxGeometry width="50" height="50" relative="1" as="geometry">
            <mxPoint x="625" y="292.16999999999996" as="sourcePoint" />
            <mxPoint x="845" y="452.16999999999996" as="targetPoint" />
          </mxGeometry>
        </mxCell>
        <mxCell id="51HZiMlxU9EM_0fWzo---149" value="Disease" style="ellipse;whiteSpace=wrap;html=1;" parent="1" vertex="1">
          <mxGeometry x="-290" y="334.66999999999996" width="52.5" height="35" as="geometry" />
        </mxCell>
        <mxCell id="51HZiMlxU9EM_0fWzo---150" value="" style="endArrow=none;html=1;rounded=0;entryX=1;entryY=0.5;entryDx=0;entryDy=0;exitX=0;exitY=0.5;exitDx=0;exitDy=0;" parent="1" source="-TbdaekWmT4Wg_c_PYvP-22" target="51HZiMlxU9EM_0fWzo---149" edge="1">
          <mxGeometry width="50" height="50" relative="1" as="geometry">
            <mxPoint x="635" y="302.16999999999996" as="sourcePoint" />
            <mxPoint x="855" y="462.16999999999996" as="targetPoint" />
          </mxGeometry>
        </mxCell>
        <mxCell id="51HZiMlxU9EM_0fWzo---151" value="Duration" style="ellipse;whiteSpace=wrap;html=1;" parent="1" vertex="1">
          <mxGeometry x="-472" y="387.17" width="75" height="50" as="geometry" />
        </mxCell>
        <mxCell id="51HZiMlxU9EM_0fWzo---152" value="" style="endArrow=none;html=1;rounded=0;entryX=1;entryY=1;entryDx=0;entryDy=0;exitX=0;exitY=0;exitDx=0;exitDy=0;" parent="1" source="-TbdaekWmT4Wg_c_PYvP-28" target="51HZiMlxU9EM_0fWzo---151" edge="1">
          <mxGeometry width="50" height="50" relative="1" as="geometry">
            <mxPoint x="500" y="247.17000000000002" as="sourcePoint" />
            <mxPoint x="720" y="407.17" as="targetPoint" />
          </mxGeometry>
        </mxCell>
        <mxCell id="51HZiMlxU9EM_0fWzo---153" value="Status" style="ellipse;whiteSpace=wrap;html=1;" parent="1" vertex="1">
          <mxGeometry x="-235" y="262.16999999999996" width="45" height="30" as="geometry" />
        </mxCell>
        <mxCell id="51HZiMlxU9EM_0fWzo---154" value="" style="endArrow=none;html=1;rounded=0;entryX=0.5;entryY=1;entryDx=0;entryDy=0;exitX=0.25;exitY=0;exitDx=0;exitDy=0;" parent="1" source="-TbdaekWmT4Wg_c_PYvP-22" target="51HZiMlxU9EM_0fWzo---153" edge="1">
          <mxGeometry width="50" height="50" relative="1" as="geometry">
            <mxPoint x="655" y="322.16999999999996" as="sourcePoint" />
            <mxPoint x="875" y="482.16999999999996" as="targetPoint" />
          </mxGeometry>
        </mxCell>
        <mxCell id="51HZiMlxU9EM_0fWzo---155" value="# Nights" style="ellipse;whiteSpace=wrap;html=1;" parent="1" vertex="1">
          <mxGeometry x="95" y="230" width="75" height="50" as="geometry" />
        </mxCell>
        <mxCell id="51HZiMlxU9EM_0fWzo---156" value="" style="endArrow=none;html=1;rounded=0;entryX=0.082;entryY=0.843;entryDx=0;entryDy=0;exitX=1;exitY=0;exitDx=0;exitDy=0;entryPerimeter=0;" parent="1" source="-TbdaekWmT4Wg_c_PYvP-1" target="51HZiMlxU9EM_0fWzo---155" edge="1">
          <mxGeometry width="50" height="50" relative="1" as="geometry">
            <mxPoint x="520" y="310" as="sourcePoint" />
            <mxPoint x="740" y="470" as="targetPoint" />
          </mxGeometry>
        </mxCell>
        <mxCell id="51HZiMlxU9EM_0fWzo---159" value="Phone #" style="ellipse;whiteSpace=wrap;html=1;" parent="1" vertex="1">
          <mxGeometry x="-22.5" y="825" width="75" height="50" as="geometry" />
        </mxCell>
        <mxCell id="51HZiMlxU9EM_0fWzo---160" value="" style="endArrow=none;html=1;rounded=0;entryX=0;entryY=0.5;entryDx=0;entryDy=0;exitX=1;exitY=0.5;exitDx=0;exitDy=0;" parent="1" source="51HZiMlxU9EM_0fWzo---6" target="51HZiMlxU9EM_0fWzo---159" edge="1">
          <mxGeometry width="50" height="50" relative="1" as="geometry">
            <mxPoint x="140" y="635" as="sourcePoint" />
            <mxPoint x="230" y="780" as="targetPoint" />
          </mxGeometry>
        </mxCell>
        <mxCell id="51HZiMlxU9EM_0fWzo---163" value="Date" style="ellipse;whiteSpace=wrap;html=1;" parent="1" vertex="1">
          <mxGeometry x="-281.25" y="292.16999999999996" width="43.75" height="29.17" as="geometry" />
        </mxCell>
        <mxCell id="51HZiMlxU9EM_0fWzo---164" value="" style="endArrow=none;html=1;rounded=0;entryX=1;entryY=1;entryDx=0;entryDy=0;exitX=0;exitY=0;exitDx=0;exitDy=0;" parent="1" source="-TbdaekWmT4Wg_c_PYvP-22" target="51HZiMlxU9EM_0fWzo---163" edge="1">
          <mxGeometry width="50" height="50" relative="1" as="geometry">
            <mxPoint x="705" y="372.16999999999996" as="sourcePoint" />
            <mxPoint x="925" y="532.17" as="targetPoint" />
          </mxGeometry>
        </mxCell>
        <mxCell id="51HZiMlxU9EM_0fWzo---165" value="Name" style="ellipse;whiteSpace=wrap;html=1;" parent="1" vertex="1">
          <mxGeometry x="-246.25" y="825" width="75" height="50" as="geometry" />
        </mxCell>
        <mxCell id="51HZiMlxU9EM_0fWzo---166" value="" style="endArrow=none;html=1;rounded=0;entryX=1;entryY=0.5;entryDx=0;entryDy=0;exitX=0;exitY=0.5;exitDx=0;exitDy=0;" parent="1" source="51HZiMlxU9EM_0fWzo---6" target="51HZiMlxU9EM_0fWzo---165" edge="1">
          <mxGeometry width="50" height="50" relative="1" as="geometry">
            <mxPoint x="1140" y="990" as="sourcePoint" />
            <mxPoint x="1360" y="1150" as="targetPoint" />
          </mxGeometry>
        </mxCell>
        <mxCell id="51HZiMlxU9EM_0fWzo---169" value="&lt;u&gt;NID&lt;/u&gt;" style="ellipse;whiteSpace=wrap;html=1;" parent="1" vertex="1">
          <mxGeometry x="-225" y="895" width="75" height="50" as="geometry" />
        </mxCell>
        <mxCell id="51HZiMlxU9EM_0fWzo---170" value="" style="endArrow=none;html=1;rounded=0;entryX=1;entryY=0;entryDx=0;entryDy=0;exitX=0.25;exitY=1;exitDx=0;exitDy=0;" parent="1" source="51HZiMlxU9EM_0fWzo---6" target="51HZiMlxU9EM_0fWzo---169" edge="1">
          <mxGeometry width="50" height="50" relative="1" as="geometry">
            <mxPoint x="15" y="920" as="sourcePoint" />
            <mxPoint x="235" y="1080" as="targetPoint" />
          </mxGeometry>
        </mxCell>
        <mxCell id="51HZiMlxU9EM_0fWzo---171" value="Address" style="ellipse;whiteSpace=wrap;html=1;" parent="1" vertex="1">
          <mxGeometry x="-52.5" y="895" width="75" height="50" as="geometry" />
        </mxCell>
        <mxCell id="51HZiMlxU9EM_0fWzo---172" value="" style="endArrow=none;html=1;rounded=0;entryX=0;entryY=0;entryDx=0;entryDy=0;exitX=0.808;exitY=0.983;exitDx=0;exitDy=0;exitPerimeter=0;" parent="1" source="51HZiMlxU9EM_0fWzo---6" target="51HZiMlxU9EM_0fWzo---171" edge="1">
          <mxGeometry width="50" height="50" relative="1" as="geometry">
            <mxPoint x="25" y="930" as="sourcePoint" />
            <mxPoint x="245" y="1090" as="targetPoint" />
          </mxGeometry>
        </mxCell>
        <mxCell id="51HZiMlxU9EM_0fWzo---173" value="Cert #" style="ellipse;whiteSpace=wrap;html=1;" parent="1" vertex="1">
          <mxGeometry x="-137.5" y="895" width="75" height="50" as="geometry" />
        </mxCell>
        <mxCell id="51HZiMlxU9EM_0fWzo---174" value="" style="endArrow=none;html=1;rounded=0;exitX=0.5;exitY=1;exitDx=0;exitDy=0;entryX=0.5;entryY=0;entryDx=0;entryDy=0;" parent="1" source="51HZiMlxU9EM_0fWzo---6" target="51HZiMlxU9EM_0fWzo---173" edge="1">
          <mxGeometry width="50" height="50" relative="1" as="geometry">
            <mxPoint x="35" y="940" as="sourcePoint" />
            <mxPoint x="-65" y="950" as="targetPoint" />
          </mxGeometry>
        </mxCell>
        <mxCell id="51HZiMlxU9EM_0fWzo---175" value="Phone #" style="ellipse;whiteSpace=wrap;html=1;" parent="1" vertex="1">
          <mxGeometry x="-32.5" y="648.33" width="62.5" height="41.67" as="geometry" />
        </mxCell>
        <mxCell id="51HZiMlxU9EM_0fWzo---176" value="" style="endArrow=none;html=1;rounded=0;entryX=0.5;entryY=0;entryDx=0;entryDy=0;exitX=0.142;exitY=0.994;exitDx=0;exitDy=0;exitPerimeter=0;" parent="1" source="51HZiMlxU9EM_0fWzo---5" target="51HZiMlxU9EM_0fWzo---175" edge="1">
          <mxGeometry width="50" height="50" relative="1" as="geometry">
            <mxPoint x="477.5" y="675" as="sourcePoint" />
            <mxPoint x="697.5" y="835" as="targetPoint" />
          </mxGeometry>
        </mxCell>
        <mxCell id="51HZiMlxU9EM_0fWzo---177" value="Address" style="ellipse;whiteSpace=wrap;html=1;" parent="1" vertex="1">
          <mxGeometry x="7.5" y="685" width="65" height="40" as="geometry" />
        </mxCell>
        <mxCell id="51HZiMlxU9EM_0fWzo---178" value="" style="endArrow=none;html=1;rounded=0;entryX=0.5;entryY=0;entryDx=0;entryDy=0;exitX=0.25;exitY=1;exitDx=0;exitDy=0;" parent="1" source="51HZiMlxU9EM_0fWzo---5" target="51HZiMlxU9EM_0fWzo---177" edge="1">
          <mxGeometry width="50" height="50" relative="1" as="geometry">
            <mxPoint x="487.5" y="685" as="sourcePoint" />
            <mxPoint x="707.5" y="845" as="targetPoint" />
          </mxGeometry>
        </mxCell>
        <mxCell id="51HZiMlxU9EM_0fWzo---179" value="&lt;u&gt;PID&lt;/u&gt;" style="ellipse;whiteSpace=wrap;html=1;" parent="1" vertex="1">
          <mxGeometry x="97.5" y="622.17" width="45" height="30" as="geometry" />
        </mxCell>
        <mxCell id="51HZiMlxU9EM_0fWzo---180" value="" style="endArrow=none;html=1;rounded=0;entryX=0.5;entryY=0;entryDx=0;entryDy=0;exitX=0.75;exitY=1;exitDx=0;exitDy=0;" parent="1" source="51HZiMlxU9EM_0fWzo---5" target="51HZiMlxU9EM_0fWzo---179" edge="1">
          <mxGeometry width="50" height="50" relative="1" as="geometry">
            <mxPoint x="497.5" y="695" as="sourcePoint" />
            <mxPoint x="717.5" y="855" as="targetPoint" />
          </mxGeometry>
        </mxCell>
        <mxCell id="51HZiMlxU9EM_0fWzo---181" value="Name" style="ellipse;whiteSpace=wrap;html=1;" parent="1" vertex="1">
          <mxGeometry x="30" y="622.17" width="60" height="40" as="geometry" />
        </mxCell>
        <mxCell id="51HZiMlxU9EM_0fWzo---182" value="" style="endArrow=none;html=1;rounded=0;entryX=0.5;entryY=0;entryDx=0;entryDy=0;exitX=0.5;exitY=1;exitDx=0;exitDy=0;" parent="1" source="51HZiMlxU9EM_0fWzo---5" target="51HZiMlxU9EM_0fWzo---181" edge="1">
          <mxGeometry width="50" height="50" relative="1" as="geometry">
            <mxPoint x="507.5" y="705" as="sourcePoint" />
            <mxPoint x="727.5" y="865" as="targetPoint" />
          </mxGeometry>
        </mxCell>
        <mxCell id="-TbdaekWmT4Wg_c_PYvP-1" value="Hospitalized" style="rhombus;whiteSpace=wrap;html=1;" parent="1" vertex="1">
          <mxGeometry x="-5" y="290" width="80" height="80" as="geometry" />
        </mxCell>
        <mxCell id="-TbdaekWmT4Wg_c_PYvP-2" value="" style="endArrow=none;html=1;rounded=0;entryX=0.5;entryY=1;entryDx=0;entryDy=0;exitX=0.5;exitY=0;exitDx=0;exitDy=0;" parent="1" source="51HZiMlxU9EM_0fWzo---5" target="-TbdaekWmT4Wg_c_PYvP-1" edge="1">
          <mxGeometry width="50" height="50" relative="1" as="geometry">
            <mxPoint x="300" y="440" as="sourcePoint" />
            <mxPoint x="350" y="390" as="targetPoint" />
          </mxGeometry>
        </mxCell>
        <mxCell id="-TbdaekWmT4Wg_c_PYvP-3" value="" style="endArrow=none;html=1;rounded=0;entryX=0.5;entryY=1;entryDx=0;entryDy=0;exitX=0.5;exitY=0;exitDx=0;exitDy=0;" parent="1" source="-TbdaekWmT4Wg_c_PYvP-1" target="51HZiMlxU9EM_0fWzo---2" edge="1">
          <mxGeometry width="50" height="50" relative="1" as="geometry">
            <mxPoint x="300" y="440" as="sourcePoint" />
            <mxPoint x="350" y="390" as="targetPoint" />
          </mxGeometry>
        </mxCell>
        <mxCell id="-TbdaekWmT4Wg_c_PYvP-4" value="M" style="text;html=1;align=center;verticalAlign=middle;resizable=0;points=[];autosize=1;strokeColor=none;fillColor=none;" parent="1" vertex="1">
          <mxGeometry x="35" y="200" width="30" height="30" as="geometry" />
        </mxCell>
        <mxCell id="-TbdaekWmT4Wg_c_PYvP-5" value="M" style="text;html=1;align=center;verticalAlign=middle;resizable=0;points=[];autosize=1;strokeColor=none;fillColor=none;" parent="1" vertex="1">
          <mxGeometry x="37.5" y="515" width="30" height="30" as="geometry" />
        </mxCell>
        <mxCell id="-TbdaekWmT4Wg_c_PYvP-6" value="Orders&amp;nbsp;" style="rhombus;whiteSpace=wrap;html=1;" parent="1" vertex="1">
          <mxGeometry x="-406.25" y="532.17" width="80" height="80" as="geometry" />
        </mxCell>
        <mxCell id="-TbdaekWmT4Wg_c_PYvP-7" value="" style="endArrow=none;html=1;rounded=0;exitX=1;exitY=0.5;exitDx=0;exitDy=0;entryX=0;entryY=0.5;entryDx=0;entryDy=0;" parent="1" source="-TbdaekWmT4Wg_c_PYvP-6" target="51HZiMlxU9EM_0fWzo---5" edge="1">
          <mxGeometry width="50" height="50" relative="1" as="geometry">
            <mxPoint x="80" y="720" as="sourcePoint" />
            <mxPoint x="130" y="670" as="targetPoint" />
          </mxGeometry>
        </mxCell>
        <mxCell id="-TbdaekWmT4Wg_c_PYvP-8" value="" style="endArrow=none;html=1;rounded=0;entryX=1;entryY=0.5;entryDx=0;entryDy=0;exitX=0;exitY=0.5;exitDx=0;exitDy=0;" parent="1" source="-TbdaekWmT4Wg_c_PYvP-6" target="51HZiMlxU9EM_0fWzo---1" edge="1">
          <mxGeometry width="50" height="50" relative="1" as="geometry">
            <mxPoint x="105" y="672.17" as="sourcePoint" />
            <mxPoint x="155" y="622.17" as="targetPoint" />
          </mxGeometry>
        </mxCell>
        <mxCell id="-TbdaekWmT4Wg_c_PYvP-9" value="" style="endArrow=none;html=1;rounded=0;entryX=0.5;entryY=1;entryDx=0;entryDy=0;exitX=0.5;exitY=0;exitDx=0;exitDy=0;" parent="1" source="51HZiMlxU9EM_0fWzo---3" target="-TbdaekWmT4Wg_c_PYvP-6" edge="1">
          <mxGeometry width="50" height="50" relative="1" as="geometry">
            <mxPoint x="105" y="672.17" as="sourcePoint" />
            <mxPoint x="155" y="622.17" as="targetPoint" />
          </mxGeometry>
        </mxCell>
        <mxCell id="-TbdaekWmT4Wg_c_PYvP-10" value="" style="endArrow=none;html=1;rounded=0;exitX=1;exitY=0.5;exitDx=0;exitDy=0;" parent="1" source="51HZiMlxU9EM_0fWzo---5" target="-TbdaekWmT4Wg_c_PYvP-11" edge="1">
          <mxGeometry width="50" height="50" relative="1" as="geometry">
            <mxPoint x="80" y="370" as="sourcePoint" />
            <mxPoint x="200" y="570" as="targetPoint" />
          </mxGeometry>
        </mxCell>
        <mxCell id="-TbdaekWmT4Wg_c_PYvP-11" value="Payments" style="rhombus;whiteSpace=wrap;html=1;" parent="1" vertex="1">
          <mxGeometry x="380" y="608" width="80" height="80" as="geometry" />
        </mxCell>
        <mxCell id="-TbdaekWmT4Wg_c_PYvP-13" value="M" style="text;html=1;align=center;verticalAlign=middle;resizable=0;points=[];autosize=1;strokeColor=none;fillColor=none;" parent="1" vertex="1">
          <mxGeometry x="97.5" y="550" width="30" height="30" as="geometry" />
        </mxCell>
        <mxCell id="-TbdaekWmT4Wg_c_PYvP-15" value="Invoice" style="rounded=0;whiteSpace=wrap;html=1;" parent="1" vertex="1">
          <mxGeometry x="390" y="478" width="120" height="60" as="geometry" />
        </mxCell>
        <mxCell id="-TbdaekWmT4Wg_c_PYvP-16" value="Receive" style="rhombus;whiteSpace=wrap;html=1;" parent="1" vertex="1">
          <mxGeometry x="250" y="478" width="80" height="80" as="geometry" />
        </mxCell>
        <mxCell id="-TbdaekWmT4Wg_c_PYvP-17" value="" style="endArrow=none;html=1;rounded=0;exitX=1;exitY=0;exitDx=0;exitDy=0;entryX=0;entryY=0.5;entryDx=0;entryDy=0;" parent="1" source="51HZiMlxU9EM_0fWzo---5" target="-TbdaekWmT4Wg_c_PYvP-16" edge="1">
          <mxGeometry width="50" height="50" relative="1" as="geometry">
            <mxPoint x="80" y="370" as="sourcePoint" />
            <mxPoint x="130" y="320" as="targetPoint" />
          </mxGeometry>
        </mxCell>
        <mxCell id="-TbdaekWmT4Wg_c_PYvP-18" value="" style="endArrow=none;html=1;rounded=0;entryX=0;entryY=0.5;entryDx=0;entryDy=0;exitX=1;exitY=0.5;exitDx=0;exitDy=0;" parent="1" source="-TbdaekWmT4Wg_c_PYvP-16" target="-TbdaekWmT4Wg_c_PYvP-15" edge="1">
          <mxGeometry width="50" height="50" relative="1" as="geometry">
            <mxPoint x="230" y="463" as="sourcePoint" />
            <mxPoint x="280" y="413" as="targetPoint" />
          </mxGeometry>
        </mxCell>
        <mxCell id="-TbdaekWmT4Wg_c_PYvP-19" value="M" style="text;html=1;align=center;verticalAlign=middle;resizable=0;points=[];autosize=1;strokeColor=none;fillColor=none;" parent="1" vertex="1">
          <mxGeometry x="85" y="508" width="30" height="30" as="geometry" />
        </mxCell>
        <mxCell id="-TbdaekWmT4Wg_c_PYvP-20" value="M" style="text;html=1;align=center;verticalAlign=middle;resizable=0;points=[];autosize=1;strokeColor=none;fillColor=none;" parent="1" vertex="1">
          <mxGeometry x="360" y="470" width="30" height="30" as="geometry" />
        </mxCell>
        <mxCell id="-TbdaekWmT4Wg_c_PYvP-21" value="" style="endArrow=none;html=1;rounded=0;exitX=0;exitY=0;exitDx=0;exitDy=0;" parent="1" source="51HZiMlxU9EM_0fWzo---5" target="-TbdaekWmT4Wg_c_PYvP-23" edge="1">
          <mxGeometry width="50" height="50" relative="1" as="geometry">
            <mxPoint x="80" y="370" as="sourcePoint" />
            <mxPoint x="-170" y="530" as="targetPoint" />
          </mxGeometry>
        </mxCell>
        <mxCell id="-TbdaekWmT4Wg_c_PYvP-22" value="Health Record" style="rounded=0;whiteSpace=wrap;html=1;" parent="1" vertex="1">
          <mxGeometry x="-208.75" y="322.16999999999996" width="120" height="60" as="geometry" />
        </mxCell>
        <mxCell id="-TbdaekWmT4Wg_c_PYvP-23" value="Has" style="rhombus;whiteSpace=wrap;html=1;" parent="1" vertex="1">
          <mxGeometry x="-90" y="390" width="80" height="80" as="geometry" />
        </mxCell>
        <mxCell id="-TbdaekWmT4Wg_c_PYvP-24" value="" style="endArrow=none;html=1;rounded=0;exitX=0;exitY=0;exitDx=0;exitDy=0;entryX=1;entryY=1;entryDx=0;entryDy=0;" parent="1" source="-TbdaekWmT4Wg_c_PYvP-23" target="-TbdaekWmT4Wg_c_PYvP-22" edge="1">
          <mxGeometry width="50" height="50" relative="1" as="geometry">
            <mxPoint x="80" y="370" as="sourcePoint" />
            <mxPoint x="130" y="320" as="targetPoint" />
          </mxGeometry>
        </mxCell>
        <mxCell id="-TbdaekWmT4Wg_c_PYvP-25" value="M" style="text;html=1;align=center;verticalAlign=middle;resizable=0;points=[];autosize=1;strokeColor=none;fillColor=none;" parent="1" vertex="1">
          <mxGeometry x="-428.75" y="910" width="30" height="30" as="geometry" />
        </mxCell>
        <mxCell id="-TbdaekWmT4Wg_c_PYvP-26" value="M" style="text;html=1;align=center;verticalAlign=middle;resizable=0;points=[];autosize=1;strokeColor=none;fillColor=none;" parent="1" vertex="1">
          <mxGeometry x="-572.5" y="547.17" width="30" height="30" as="geometry" />
        </mxCell>
        <mxCell id="-TbdaekWmT4Wg_c_PYvP-27" value="M" style="text;html=1;align=center;verticalAlign=middle;resizable=0;points=[];autosize=1;strokeColor=none;fillColor=none;" parent="1" vertex="1">
          <mxGeometry x="-52.5" y="570" width="30" height="30" as="geometry" />
        </mxCell>
        <mxCell id="-TbdaekWmT4Wg_c_PYvP-28" value="Monitor" style="rhombus;whiteSpace=wrap;html=1;" parent="1" vertex="1">
          <mxGeometry x="-403.75" y="427.17" width="80" height="80" as="geometry" />
        </mxCell>
        <mxCell id="-TbdaekWmT4Wg_c_PYvP-29" value="" style="endArrow=none;html=1;rounded=0;exitX=1;exitY=0;exitDx=0;exitDy=0;entryX=0;entryY=1;entryDx=0;entryDy=0;" parent="1" source="51HZiMlxU9EM_0fWzo---1" target="-TbdaekWmT4Wg_c_PYvP-28" edge="1">
          <mxGeometry width="50" height="50" relative="1" as="geometry">
            <mxPoint x="-125" y="382.17" as="sourcePoint" />
            <mxPoint x="-75" y="332.17" as="targetPoint" />
          </mxGeometry>
        </mxCell>
        <mxCell id="-TbdaekWmT4Wg_c_PYvP-30" value="M" style="text;html=1;align=center;verticalAlign=middle;resizable=0;points=[];autosize=1;strokeColor=none;fillColor=none;" parent="1" vertex="1">
          <mxGeometry x="-585" y="517.17" width="30" height="30" as="geometry" />
        </mxCell>
        <mxCell id="-TbdaekWmT4Wg_c_PYvP-31" value="" style="endArrow=none;html=1;rounded=0;exitX=1;exitY=1;exitDx=0;exitDy=0;entryX=0;entryY=0.25;entryDx=0;entryDy=0;" parent="1" source="-TbdaekWmT4Wg_c_PYvP-28" target="51HZiMlxU9EM_0fWzo---5" edge="1">
          <mxGeometry width="50" height="50" relative="1" as="geometry">
            <mxPoint x="-150" y="430" as="sourcePoint" />
            <mxPoint x="-100" y="380" as="targetPoint" />
          </mxGeometry>
        </mxCell>
        <mxCell id="-TbdaekWmT4Wg_c_PYvP-32" value="M" style="text;html=1;align=center;verticalAlign=middle;resizable=0;points=[];autosize=1;strokeColor=none;fillColor=none;" parent="1" vertex="1">
          <mxGeometry x="-52.5" y="532.17" width="30" height="30" as="geometry" />
        </mxCell>
        <mxCell id="-TbdaekWmT4Wg_c_PYvP-33" value="1" style="text;html=1;align=center;verticalAlign=middle;resizable=0;points=[];autosize=1;strokeColor=none;fillColor=none;" parent="1" vertex="1">
          <mxGeometry x="-32.5" y="520" width="30" height="30" as="geometry" />
        </mxCell>
        <mxCell id="-TbdaekWmT4Wg_c_PYvP-34" value="1" style="text;html=1;align=center;verticalAlign=middle;resizable=0;points=[];autosize=1;strokeColor=none;fillColor=none;" parent="1" vertex="1">
          <mxGeometry x="-90" y="357.16999999999996" width="30" height="30" as="geometry" />
        </mxCell>
        <mxCell id="-TbdaekWmT4Wg_c_PYvP-37" value="" style="endArrow=none;html=1;rounded=0;exitX=1;exitY=1;exitDx=0;exitDy=0;" parent="1" source="-TbdaekWmT4Wg_c_PYvP-6" target="-TbdaekWmT4Wg_c_PYvP-38" edge="1">
          <mxGeometry width="50" height="50" relative="1" as="geometry">
            <mxPoint x="-150" y="297.17" as="sourcePoint" />
            <mxPoint x="-430" y="627.17" as="targetPoint" />
          </mxGeometry>
        </mxCell>
        <mxCell id="-TbdaekWmT4Wg_c_PYvP-38" value="Date" style="ellipse;whiteSpace=wrap;html=1;" parent="1" vertex="1">
          <mxGeometry x="-313.75" y="607.17" width="52.5" height="35" as="geometry" />
        </mxCell>
        <mxCell id="-TbdaekWmT4Wg_c_PYvP-39" value="&lt;u&gt;rID&lt;/u&gt;" style="ellipse;whiteSpace=wrap;html=1;" parent="1" vertex="1">
          <mxGeometry x="-126.25" y="272.16999999999996" width="45" height="30" as="geometry" />
        </mxCell>
        <mxCell id="-TbdaekWmT4Wg_c_PYvP-40" value="" style="endArrow=none;html=1;rounded=0;entryX=0.5;entryY=1;entryDx=0;entryDy=0;exitX=0.75;exitY=0;exitDx=0;exitDy=0;" parent="1" source="-TbdaekWmT4Wg_c_PYvP-22" target="-TbdaekWmT4Wg_c_PYvP-39" edge="1">
          <mxGeometry width="50" height="50" relative="1" as="geometry">
            <mxPoint x="-5" y="362.16999999999996" as="sourcePoint" />
            <mxPoint x="45" y="312.16999999999996" as="targetPoint" />
          </mxGeometry>
        </mxCell>
        <mxCell id="-TbdaekWmT4Wg_c_PYvP-41" value="" style="endArrow=none;html=1;rounded=0;entryX=0.5;entryY=1;entryDx=0;entryDy=0;exitX=0.5;exitY=0;exitDx=0;exitDy=0;" parent="1" source="-TbdaekWmT4Wg_c_PYvP-11" target="-TbdaekWmT4Wg_c_PYvP-15" edge="1">
          <mxGeometry width="50" height="50" relative="1" as="geometry">
            <mxPoint y="433" as="sourcePoint" />
            <mxPoint x="50" y="383" as="targetPoint" />
          </mxGeometry>
        </mxCell>
        <mxCell id="-TbdaekWmT4Wg_c_PYvP-42" value="M" style="text;html=1;align=center;verticalAlign=middle;resizable=0;points=[];autosize=1;strokeColor=none;fillColor=none;" parent="1" vertex="1">
          <mxGeometry x="450" y="538" width="30" height="30" as="geometry" />
        </mxCell>
        <mxCell id="j_ywAYQHwuQvvdRZZskB-6" value="medicate" style="rhombus;whiteSpace=wrap;html=1;" vertex="1" parent="1">
          <mxGeometry x="-105" y="690" width="80" height="80" as="geometry" />
        </mxCell>
        <mxCell id="j_ywAYQHwuQvvdRZZskB-7" value="" style="endArrow=none;html=1;rounded=0;entryX=0;entryY=1;entryDx=0;entryDy=0;exitX=0.5;exitY=0;exitDx=0;exitDy=0;" edge="1" parent="1" source="j_ywAYQHwuQvvdRZZskB-6" target="51HZiMlxU9EM_0fWzo---5">
          <mxGeometry width="50" height="50" relative="1" as="geometry">
            <mxPoint x="-230" y="770" as="sourcePoint" />
            <mxPoint x="-180" y="720" as="targetPoint" />
          </mxGeometry>
        </mxCell>
        <mxCell id="j_ywAYQHwuQvvdRZZskB-9" value="" style="endArrow=none;html=1;rounded=0;entryX=0.5;entryY=1;entryDx=0;entryDy=0;" edge="1" parent="1" source="51HZiMlxU9EM_0fWzo---6" target="j_ywAYQHwuQvvdRZZskB-6">
          <mxGeometry width="50" height="50" relative="1" as="geometry">
            <mxPoint x="287.5" y="845" as="sourcePoint" />
            <mxPoint x="40" y="850.1700000000001" as="targetPoint" />
          </mxGeometry>
        </mxCell>
        <mxCell id="j_ywAYQHwuQvvdRZZskB-11" value="Service (superclass for room/instruction,&amp;nbsp; contribute to invoice" style="rounded=0;whiteSpace=wrap;html=1;" vertex="1" parent="1">
          <mxGeometry x="555" y="890" width="120" height="60" as="geometry" />
        </mxCell>
        <mxCell id="j_ywAYQHwuQvvdRZZskB-12" value="Contribute" style="rhombus;whiteSpace=wrap;html=1;" vertex="1" parent="1">
          <mxGeometry x="575" y="690" width="80" height="80" as="geometry" />
        </mxCell>
        <mxCell id="j_ywAYQHwuQvvdRZZskB-13" value="U" style="ellipse;whiteSpace=wrap;html=1;aspect=fixed;" vertex="1" parent="1">
          <mxGeometry x="310" y="690" width="40" height="40" as="geometry" />
        </mxCell>
        <mxCell id="j_ywAYQHwuQvvdRZZskB-14" value="Execute" style="rhombus;whiteSpace=wrap;html=1;" vertex="1" parent="1">
          <mxGeometry x="-220" y="698.84" width="80" height="80" as="geometry" />
        </mxCell>
        <mxCell id="j_ywAYQHwuQvvdRZZskB-15" value="" style="endArrow=none;html=1;rounded=0;exitX=0.5;exitY=0;exitDx=0;exitDy=0;entryX=1;entryY=1;entryDx=0;entryDy=0;" edge="1" parent="1" source="51HZiMlxU9EM_0fWzo---6" target="j_ywAYQHwuQvvdRZZskB-14">
          <mxGeometry width="50" height="50" relative="1" as="geometry">
            <mxPoint x="30" y="870" as="sourcePoint" />
            <mxPoint x="80" y="820" as="targetPoint" />
          </mxGeometry>
        </mxCell>
        <mxCell id="j_ywAYQHwuQvvdRZZskB-16" value="" style="endArrow=none;html=1;rounded=0;entryX=1;entryY=0.5;entryDx=0;entryDy=0;exitX=0;exitY=1;exitDx=0;exitDy=0;" edge="1" parent="1" source="j_ywAYQHwuQvvdRZZskB-14" target="51HZiMlxU9EM_0fWzo---3">
          <mxGeometry width="50" height="50" relative="1" as="geometry">
            <mxPoint x="30" y="870" as="sourcePoint" />
            <mxPoint x="80" y="820" as="targetPoint" />
          </mxGeometry>
        </mxCell>
        <mxCell id="j_ywAYQHwuQvvdRZZskB-18" value="" style="endArrow=none;html=1;rounded=0;entryX=1.024;entryY=0.613;entryDx=0;entryDy=0;exitX=1;exitY=0;exitDx=0;exitDy=0;entryPerimeter=0;" edge="1" parent="1" source="j_ywAYQHwuQvvdRZZskB-14" target="-TbdaekWmT4Wg_c_PYvP-27">
          <mxGeometry width="50" height="50" relative="1" as="geometry">
            <mxPoint x="30" y="870" as="sourcePoint" />
            <mxPoint x="80" y="820" as="targetPoint" />
          </mxGeometry>
        </mxCell>
        <mxCell id="j_ywAYQHwuQvvdRZZskB-19" value="" style="endArrow=none;html=1;rounded=0;exitX=0;exitY=0;exitDx=0;exitDy=0;" edge="1" parent="1" source="j_ywAYQHwuQvvdRZZskB-14" target="j_ywAYQHwuQvvdRZZskB-20">
          <mxGeometry width="50" height="50" relative="1" as="geometry">
            <mxPoint x="-150" y="620" as="sourcePoint" />
            <mxPoint x="-100" y="570" as="targetPoint" />
          </mxGeometry>
        </mxCell>
        <mxCell id="j_ywAYQHwuQvvdRZZskB-20" value="Date" style="ellipse;whiteSpace=wrap;html=1;" vertex="1" parent="1">
          <mxGeometry x="-255" y="662.17" width="55" height="36.67" as="geometry" />
        </mxCell>
        <mxCell id="j_ywAYQHwuQvvdRZZskB-21" value="M" style="text;html=1;align=center;verticalAlign=middle;resizable=0;points=[];autosize=1;strokeColor=none;fillColor=none;" vertex="1" parent="1">
          <mxGeometry x="-77.5" y="795" width="30" height="30" as="geometry" />
        </mxCell>
        <mxCell id="j_ywAYQHwuQvvdRZZskB-25" value="M" style="text;html=1;align=center;verticalAlign=middle;resizable=0;points=[];autosize=1;strokeColor=none;fillColor=none;" vertex="1" parent="1">
          <mxGeometry x="-53.5" y="612.17" width="30" height="30" as="geometry" />
        </mxCell>
        <mxCell id="j_ywAYQHwuQvvdRZZskB-2" value="M" style="text;html=1;align=center;verticalAlign=middle;resizable=0;points=[];autosize=1;strokeColor=none;fillColor=none;" vertex="1" parent="1">
          <mxGeometry x="-150" y="790" width="30" height="30" as="geometry" />
        </mxCell>
        <mxCell id="j_ywAYQHwuQvvdRZZskB-29" value="" style="endArrow=none;html=1;rounded=0;exitX=0.5;exitY=0;exitDx=0;exitDy=0;" edge="1" parent="1" source="j_ywAYQHwuQvvdRZZskB-14" target="j_ywAYQHwuQvvdRZZskB-30">
          <mxGeometry width="50" height="50" relative="1" as="geometry">
            <mxPoint x="80" y="620" as="sourcePoint" />
            <mxPoint x="-200" y="610" as="targetPoint" />
          </mxGeometry>
        </mxCell>
        <mxCell id="j_ywAYQHwuQvvdRZZskB-30" value="Status" style="ellipse;whiteSpace=wrap;html=1;" vertex="1" parent="1">
          <mxGeometry x="-200" y="630" width="60" height="40" as="geometry" />
        </mxCell>
        <mxCell id="j_ywAYQHwuQvvdRZZskB-39" value="" style="endArrow=none;html=1;rounded=0;exitX=0.5;exitY=0;exitDx=0;exitDy=0;entryX=0.5;entryY=1;entryDx=0;entryDy=0;" edge="1" parent="1" source="j_ywAYQHwuQvvdRZZskB-11" target="j_ywAYQHwuQvvdRZZskB-12">
          <mxGeometry width="50" height="50" relative="1" as="geometry">
            <mxPoint x="-65" y="550" as="sourcePoint" />
            <mxPoint x="-15" y="500" as="targetPoint" />
          </mxGeometry>
        </mxCell>
        <mxCell id="j_ywAYQHwuQvvdRZZskB-40" value="" style="endArrow=none;html=1;rounded=0;entryX=1;entryY=0.75;entryDx=0;entryDy=0;exitX=0.5;exitY=0;exitDx=0;exitDy=0;" edge="1" parent="1" source="j_ywAYQHwuQvvdRZZskB-12" target="-TbdaekWmT4Wg_c_PYvP-15">
          <mxGeometry width="50" height="50" relative="1" as="geometry">
            <mxPoint x="-130" y="600" as="sourcePoint" />
            <mxPoint x="460" y="590" as="targetPoint" />
          </mxGeometry>
        </mxCell>
        <mxCell id="j_ywAYQHwuQvvdRZZskB-42" value="" style="endArrow=none;html=1;rounded=0;entryX=0;entryY=0.5;entryDx=0;entryDy=0;" edge="1" parent="1" target="j_ywAYQHwuQvvdRZZskB-11">
          <mxGeometry width="50" height="50" relative="1" as="geometry">
            <mxPoint x="40" y="1030" as="sourcePoint" />
            <mxPoint x="-70" y="570" as="targetPoint" />
          </mxGeometry>
        </mxCell>
      </root>
    </mxGraphModel>
  </diagram>
</mxfile>
